<svg width="48" height="38" viewBox="0 0 48 38" fill="none" xmlns="http://www.w3.org/2000/svg">
<g clip-path="url(#clip0_993_85)">
<path d="M29.1419 8.62402H41.1398V12.0693H29.1419V8.62402Z" fill="#00A0C1"/>
<path d="M29.1419 17.2373H41.1398V20.6826H29.1419V17.2373Z" fill="#00A0C1"/>
<path d="M29.1419 25.8506H41.1398V29.2959H29.1419V25.8506Z" fill="#00A0C1"/>
<path d="M44.5679 0.0112305H3.43235C2.52348 0.0121426 1.65209 0.375424 1.00942 1.02135C0.366752 1.66727 0.00530204 2.54307 0.00439453 3.45655V34.4644C0.00530204 35.3779 0.366752 36.2537 1.00942 36.8996C1.65209 37.5455 2.52348 37.9088 3.43235 37.9097H44.5679C45.4766 37.9084 46.3477 37.5449 46.9903 36.8991C47.6329 36.2533 47.9945 35.3777 47.9958 34.4644V3.45655C47.9949 2.54307 47.6335 1.66727 46.9908 1.02135C46.3481 0.375424 45.4767 0.0121426 44.5679 0.0112305ZM3.43235 3.45655H22.2861V34.4644H3.43235V3.45655ZM25.7141 34.4644V3.45655H44.5679L44.5713 34.4644H25.7141Z" fill="#00A0C1"/>
</g>
<defs>
<clipPath id="clip0_993_85">
<rect width="48" height="37.92" fill="white"/>
</clipPath>
</defs>
</svg>
