<svg width="48" height="27" viewBox="0 0 48 27" fill="none" xmlns="http://www.w3.org/2000/svg">
<path d="M43.1502 12.2819C42.5747 12.2861 42.0047 12.3959 41.4674 12.6061L35.7271 7.82142C35.8684 7.29981 35.9689 6.7587 35.9689 6.18834C35.9689 2.81004 33.3022 0.0947266 29.9844 0.0947266C26.6667 0.0947266 24 2.81004 24 6.18834C24 7.15356 24.2394 8.05298 24.6272 8.86221L17.6636 17.2421C17.3849 17.189 17.1022 17.1605 16.8186 17.1568C16.3901 17.1568 15.9856 17.23 15.593 17.3372L9.45775 11.09C9.56547 10.6927 9.63729 10.2808 9.63729 9.8445C9.63729 7.14381 7.50203 4.96961 4.84972 4.96961C2.19741 4.96961 0.0621567 7.14381 0.0621567 9.8445C0.0621567 12.5452 2.19741 14.7194 4.84972 14.7194C5.27821 14.7194 5.68276 14.6463 6.07534 14.539L12.2106 20.7862C12.0955 21.1911 12.0351 21.6102 12.0311 22.0317C12.0311 24.7324 14.1663 26.9066 16.8186 26.9066C19.4709 26.9066 21.6062 24.7324 21.6062 22.0317C21.6062 21.454 21.4913 20.9105 21.3118 20.3962L28.2849 12.0065C28.8282 12.1674 29.3908 12.2819 29.9844 12.2819C30.9291 12.2766 31.8589 12.0418 32.6966 11.597L38.4393 16.3817C38.3942 16.6377 38.3686 16.8968 38.3627 17.1568C38.3627 19.8575 40.4979 22.0317 43.1502 22.0317C45.8026 22.0317 47.9378 19.8575 47.9378 17.1568C47.9378 14.4561 45.8026 12.2819 43.1502 12.2819Z" fill="#00A0C1"/>
</svg>
