<svg width="25" height="24" viewBox="0 0 25 24" fill="none" xmlns="http://www.w3.org/2000/svg">
<g clip-path="url(#clip0_964_6180)">
<path d="M12.5018 5.84744C9.09677 5.84744 6.34877 8.59544 6.34877 12.0004C6.34877 15.4054 9.09677 18.1534 12.5018 18.1534C15.9068 18.1534 18.6548 15.4054 18.6548 12.0004C18.6548 8.59544 15.9068 5.84744 12.5018 5.84744ZM12.5018 15.9994C10.2998 15.9994 8.50277 14.2024 8.50277 12.0004C8.50277 9.79844 10.2998 8.00144 12.5018 8.00144C14.7038 8.00144 16.5008 9.79844 16.5008 12.0004C16.5008 14.2024 14.7038 15.9994 12.5018 15.9994ZM18.9068 4.16144C18.1118 4.16144 17.4698 4.80344 17.4698 5.59844C17.4698 6.39344 18.1118 7.03544 18.9068 7.03544C19.7018 7.03544 20.3438 6.39644 20.3438 5.59844C20.344 5.40966 20.307 5.22269 20.2349 5.04824C20.1627 4.87379 20.0569 4.71528 19.9234 4.5818C19.7899 4.44831 19.6314 4.34247 19.457 4.27034C19.2825 4.19821 19.0955 4.1612 18.9068 4.16144ZM24.4958 12.0004C24.4958 10.3444 24.5108 8.70344 24.4178 7.05044C24.3248 5.13044 23.8868 3.42644 22.4828 2.02244C21.0758 0.615437 19.3748 0.180437 17.4548 0.0874372C15.7988 -0.00556279 14.1578 0.00943725 12.5048 0.00943725C10.8488 0.00943725 9.20777 -0.00556279 7.55477 0.0874372C5.63477 0.180437 3.93077 0.618437 2.52677 2.02244C1.11977 3.42944 0.684771 5.13044 0.591771 7.05044C0.498771 8.70644 0.513771 10.3474 0.513771 12.0004C0.513771 13.6534 0.498771 15.2974 0.591771 16.9504C0.684771 18.8704 1.12277 20.5744 2.52677 21.9784C3.93377 23.3854 5.63477 23.8204 7.55477 23.9134C9.21077 24.0064 10.8518 23.9914 12.5048 23.9914C14.1608 23.9914 15.8018 24.0064 17.4548 23.9134C19.3748 23.8204 21.0788 23.3824 22.4828 21.9784C23.8898 20.5714 24.3248 18.8704 24.4178 16.9504C24.5138 15.2974 24.4958 13.6564 24.4958 12.0004ZM21.8558 19.0744C21.6368 19.6204 21.3728 20.0284 20.9498 20.4484C20.5268 20.8714 20.1218 21.1354 19.5758 21.3544C17.9978 21.9814 14.2508 21.8404 12.5018 21.8404C10.7528 21.8404 7.00277 21.9814 5.42477 21.3574C4.87877 21.1384 4.47077 20.8744 4.05077 20.4514C3.62777 20.0284 3.36377 19.6234 3.14477 19.0774C2.52077 17.4964 2.66177 13.7494 2.66177 12.0004C2.66177 10.2514 2.52077 6.50144 3.14477 4.92344C3.36377 4.37744 3.62777 3.96944 4.05077 3.54944C4.47377 3.12944 4.87877 2.86244 5.42477 2.64344C7.00277 2.01944 10.7528 2.16044 12.5018 2.16044C14.2508 2.16044 18.0008 2.01944 19.5788 2.64344C20.1248 2.86244 20.5328 3.12644 20.9528 3.54944C21.3758 3.97244 21.6398 4.37744 21.8588 4.92344C22.4828 6.50144 22.3418 10.2514 22.3418 12.0004C22.3418 13.7494 22.4828 17.4964 21.8558 19.0744Z" fill="#E61F5A"/>
</g>
<defs>
<clipPath id="clip0_964_6180">
<rect width="24" height="24" fill="white" transform="translate(0.5)"/>
</clipPath>
</defs>
</svg>
