<svg width="24" height="20" viewBox="0 0 24 20" fill="none" xmlns="http://www.w3.org/2000/svg">
<path d="M24.0004 2.46548C23.1188 2.85141 22.1594 3.12917 21.1712 3.23735C22.1972 2.61879 22.9655 1.64156 23.332 0.489007C22.3692 1.07022 21.3145 1.47778 20.2146 1.6936C19.7549 1.19488 19.1989 0.797581 18.5813 0.526453C17.9637 0.255325 17.2976 0.116179 16.6247 0.117688C13.902 0.117688 11.7123 2.3573 11.7123 5.10564C11.7123 5.49158 11.7584 5.87752 11.8333 6.24884C7.75651 6.03248 4.1205 4.05601 1.70321 1.0299C1.26276 1.79335 1.03194 2.66261 1.03479 3.54727C1.03479 5.27814 1.90201 6.80435 3.22446 7.70195C2.44512 7.6708 1.68403 7.45342 1.00309 7.06749V7.12889C1.00309 9.5527 2.69145 11.5613 4.94163 12.0233C4.51913 12.1347 4.0845 12.1916 3.64799 12.1929C3.32818 12.1929 3.02566 12.1607 2.72026 12.1168C3.34259 14.0933 5.15483 15.5289 7.31281 15.5757C5.62446 16.9177 3.50969 17.7071 1.21342 17.7071C0.801412 17.7071 0.4211 17.6925 0.0263824 17.6457C2.20453 19.0637 4.78893 19.8824 7.57212 19.8824C16.6074 19.8824 21.5515 12.2864 21.5515 5.69332C21.5515 5.47696 21.5515 5.2606 21.5371 5.04424C22.4936 4.33377 23.332 3.45371 24.0004 2.46548Z" fill="#00A0C1"/>
</svg>
